<?xml version="1.0" standalone="no"?>
<!DOCTYPE svg PUBLIC "-//W3C//DTD SVG 20010904//EN"
 "http://www.w3.org/TR/2001/REC-SVG-20010904/DTD/svg10.dtd">
<svg version="1.0" xmlns="http://www.w3.org/2000/svg"
 width="534.000000pt" height="534.000000pt" viewBox="0 0 534.000000 534.000000"
 preserveAspectRatio="xMidYMid meet">
<metadata>
Created by potrace 1.14, written by Peter Selinger 2001-2017
</metadata>
<g transform="translate(0.000000,534.000000) scale(0.100000,-0.100000)"
fill="#000000" stroke="none">
<path d="M2978 4215 c-2 -2 -41 -6 -87 -10 -290 -22 -584 -135 -831 -319 -41
-31 -81 -56 -89 -56 -7 0 -41 7 -74 16 -169 44 -477 53 -657 20 -47 -9 -98
-18 -115 -21 -61 -12 -240 -76 -314 -114 -247 -124 -447 -316 -559 -535 -24
-47 -29 -68 -26 -110 2 -34 -5 -74 -21 -121 -13 -38 -38 -126 -55 -195 -25
-99 -38 -130 -59 -150 -54 -50 -74 -103 -73 -188 2 -56 36 -127 72 -148 17
-10 32 -31 39 -53 14 -48 67 -122 114 -159 59 -47 153 -80 247 -86 46 -4 84
-7 85 -9 1 -1 14 -33 29 -72 48 -122 114 -225 191 -299 63 -59 178 -147 248
-188 89 -51 107 -66 107 -88 0 -9 -25 -95 -55 -191 -76 -240 -75 -308 8 -392
83 -82 232 -126 412 -121 112 3 158 9 217 30 126 44 155 123 134 367 l-8 89
54 -6 c29 -3 82 -8 118 -11 36 -3 76 -8 90 -10 33 -6 199 -17 440 -30 190 -10
195 -11 207 -18 6 -4 11 -44 12 -89 6 -290 20 -380 69 -434 74 -84 239 -116
456 -90 145 18 280 94 330 186 44 81 39 217 -20 514 -9 43 -12 82 -7 86 4 4
96 53 203 108 107 55 241 127 297 160 l102 60 5 -26 c3 -15 8 -45 12 -67 3
-22 12 -49 19 -60 30 -48 158 -85 296 -85 146 0 250 39 339 129 102 103 114
160 76 356 -3 11 -20 88 -39 170 -33 141 -44 196 -52 263 -4 36 23 81 179 297
187 259 246 368 246 453 0 23 -7 36 -25 48 -46 30 -115 9 -282 -85 l-72 -41
-11 42 c-42 167 -112 319 -226 490 -145 218 -326 406 -519 540 -82 57 -252
148 -277 148 -8 0 -18 4 -23 9 -15 13 -192 60 -275 72 -41 6 -86 13 -100 16
-26 5 -497 13 -502 8z m-1236 -659 c14 -6 9 -19 -35 -90 -29 -45 -61 -101 -72
-124 -19 -41 -21 -42 -70 -42 -250 -4 -462 -68 -629 -191 -59 -43 -181 -163
-218 -215 -31 -44 -33 -44 -48 -25 -22 30 -55 38 -152 40 -82 2 -91 0 -166
-37 l-80 -39 15 51 c8 28 17 53 20 56 3 3 32 5 66 5 75 0 116 25 149 88 141
279 458 488 793 524 28 3 52 8 55 10 8 8 353 -3 372 -11z"/>
</g>
</svg>
